<?xml version="1.0" standalone="no"?>
<!DOCTYPE svg PUBLIC "-//W3C//DTD SVG 20010904//EN"
 "http://www.w3.org/TR/2001/REC-SVG-20010904/DTD/svg10.dtd">
<svg version="1.0" xmlns="http://www.w3.org/2000/svg"
 width="540.000000pt" height="475.000000pt" viewBox="0 0 540.000000 475.000000"
 preserveAspectRatio="xMidYMid meet">
<metadata>
Created by potrace 1.16, written by Peter Selinger 2001-2019
</metadata>
<g transform="translate(0.000000,475.000000) scale(0.100000,-0.100000)"
fill="#000000" stroke="none">
<path d="M3975 4661 c-25 -11 -75 -56 -130 -116 -356 -389 -972 -728 -1632
-898 l-132 -35 -26 33 c-13 19 -51 46 -82 62 l-58 28 -550 3 c-585 3 -648 0
-713 -42 -89 -57 -122 -125 -125 -259 l-2 -95 -70 -4 c-86 -4 -164 -38 -217
-93 -75 -77 -73 -63 -76 -515 -2 -262 1 -418 7 -441 24 -82 115 -166 206 -190
22 -6 65 -11 96 -11 l56 0 1 -85 c2 -94 23 -157 70 -207 38 -41 118 -76 173
-76 l45 0 27 -112 c35 -147 215 -896 267 -1107 22 -90 50 -184 62 -209 35 -69
108 -138 185 -175 l68 -32 250 0 c237 0 253 1 298 22 93 43 149 126 155 233 3
55 -8 114 -72 375 -41 171 -111 463 -156 650 -45 187 -84 343 -87 347 -2 5 20
8 51 8 69 0 129 26 181 78 l40 40 146 -38 c643 -166 1218 -482 1604 -882 107
-111 125 -126 169 -137 60 -15 107 -2 153 42 68 64 63 -66 61 1922 l-3 1800
-27 47 c-19 32 -41 52 -71 67 -53 26 -90 26 -142 2z m-15 -1937 l0 -1556 -67
62 c-376 347 -987 663 -1573 816 -74 19 -145 42 -157 49 -42 28 -44 61 -41
652 3 553 3 562 24 590 18 24 41 33 177 69 487 128 989 365 1352 638 91 68
244 196 264 220 7 9 15 16 17 16 2 0 4 -700 4 -1556z m-2100 1 l0 -745 -535 0
-535 0 0 745 0 745 535 0 535 0 0 -745z m-1350 345 c12 -7 14 -63 15 -360 0
-350 0 -351 -21 -356 -12 -3 -35 -4 -50 -2 l-29 3 -3 354 c-2 277 1 356 10
363 17 10 60 10 78 -2z m1094 -1592 c32 -134 105 -437 162 -674 57 -237 104
-438 104 -447 0 -15 -18 -17 -185 -17 -202 0 -240 7 -270 54 -9 14 -82 294
-161 623 -79 329 -148 614 -154 634 -21 74 -35 69 218 69 l228 0 58 -242z"/>
<path d="M4803 3730 c-18 -10 -39 -33 -48 -49 -28 -55 -20 -89 50 -206 76
-127 135 -271 170 -417 99 -405 27 -860 -188 -1195 -71 -110 -66 -184 16 -233
71 -44 133 -16 201 90 122 189 207 406 253 650 14 74 17 144 17 320 0 206 -3
236 -28 355 -46 219 -131 432 -240 600 -64 101 -132 129 -203 85z"/>
<path d="M4393 3375 c-42 -18 -73 -69 -73 -119 0 -29 11 -58 40 -106 170 -281
170 -658 2 -933 -63 -102 -58 -176 14 -224 36 -23 104 -21 140 4 36 26 113
154 153 255 47 116 71 230 78 368 10 207 -25 385 -111 565 -55 114 -98 173
-141 191 -42 17 -61 17 -102 -1z"/>
</g>
</svg>
