<?xml version="1.0" encoding="UTF-8" standalone="no" ?>
<!DOCTYPE svg PUBLIC "-//W3C//DTD SVG 1.1//EN" "http://www.w3.org/Graphics/SVG/1.1/DTD/svg11.dtd">
<svg xmlns="http://www.w3.org/2000/svg" xmlns:xlink="http://www.w3.org/1999/xlink" version="1.1" width="53" height="53" viewBox="0 0 53 53" xml:space="preserve">
<desc>Created with Fabric.js 4.6.0</desc>
<defs>
</defs>
<g transform="matrix(0.01 0 0 -0.01 49.25 20.7)" id="Z9LYV3RLmtw0vQf1UVpUm"  >
<path style="stroke: none; stroke-width: 1; stroke-dasharray: none; stroke-linecap: butt; stroke-dashoffset: 0; stroke-linejoin: miter; stroke-miterlimit: 4; fill: rgb(235,235,235); fill-rule: nonzero; opacity: 1;" vector-effect="non-scaling-stroke"  transform=" translate(-5005.68, -2680.07)" d="M 4803 3730 C 4785 3720 4764 3697 4755 3681 C 4727 3626 4735 3592 4805 3475 C 4881 3348 4940 3204 4975 3058 C 5074 2653 5002 2198 4787 1863 C 4716 1753 4721 1679 4803 1630 C 4874 1586 4936 1614 5004 1720 C 5126 1909 5211 2126 5257 2370 C 5271 2444 5274 2514 5274 2690 C 5274 2896 5271 2926 5246 3045 C 5200 3264 5115 3477 5006 3645 C 4942 3746 4874 3774 4803 3730 z" stroke-linecap="round" />
</g>
<g transform="matrix(0.01 0 0 -0.01 45.32 20.7)" id="nllXbDt43nqF-GNl1lmUP"  >
<path style="stroke: none; stroke-width: 1; stroke-dasharray: none; stroke-linecap: butt; stroke-dashoffset: 0; stroke-linejoin: miter; stroke-miterlimit: 4; fill: rgb(235,235,235); fill-rule: nonzero; opacity: 1;" vector-effect="non-scaling-stroke"  transform=" translate(-4533.39, -2682.78)" d="M 4393 3375 C 4351 3357 4320 3306 4320 3256 C 4320 3227 4331 3198 4360 3150 C 4530 2869 4530 2492 4362 2217 C 4299 2115 4304 2041 4376 1993 C 4412 1970 4480 1972 4516 1997 C 4552 2023 4629 2151 4669 2252 C 4716 2368 4740 2482 4747 2620 C 4757 2827 4722 3005 4636 3185 C 4581 3299 4538 3358 4495 3376 C 4453 3393 4434 3393 4393 3375 z" stroke-linecap="round" />
</g>
<g transform="matrix(0.01 0 0 -0.01 21.21 23.89)" id="e7x-_5WC6rY8E299VOcrl"  >
<path style="stroke: none; stroke-width: 1; stroke-dasharray: none; stroke-linecap: butt; stroke-dashoffset: 0; stroke-linejoin: miter; stroke-miterlimit: 4; fill: rgb(235,235,235); fill-rule: nonzero; opacity: 1;" vector-effect="non-scaling-stroke"  transform=" translate(0, 0)" d="M 1784.83175 2279.12125 C 1759.83175 2268.12125 1709.83175 2223.12125 1654.83175 2163.12125 C 1298.83175 1774.1212500000001 682.83175 1435.1212500000001 22.831750000000056 1265.1212500000001 L -109.16824999999994 1230.1212500000001 L -135.16824999999994 1263.1212500000001 C -148.16824999999994 1282.1212500000001 -186.16824999999994 1309.1212500000001 -217.16824999999994 1325.1212500000001 L -275.16824999999994 1353.1212500000001 L -825.16825 1356.1212500000001 C -1410.16825 1359.1212500000001 -1473.16825 1356.1212500000001 -1538.16825 1314.1212500000001 C -1627.16825 1257.1212500000001 -1660.16825 1189.1212500000001 -1663.16825 1055.1212500000001 L -1665.16825 960.1212500000001 L -1735.16825 956.1212500000001 C -1821.16825 952.1212500000001 -1899.16825 918.1212500000001 -1952.16825 863.1212500000001 C -2027.16825 786.1212500000001 -2025.16825 800.1212500000001 -2028.16825 348.12125000000015 C -2030.16825 86.12125000000015 -2027.16825 -69.87874999999985 -2021.16825 -92.87874999999985 C -1997.16825 -174.87874999999985 -1906.16825 -258.87874999999985 -1815.16825 -282.87874999999985 C -1793.16825 -288.87874999999985 -1750.16825 -293.87874999999985 -1719.16825 -293.87874999999985 L -1663.16825 -293.87874999999985 L -1662.16825 -378.87874999999985 C -1660.16825 -472.87874999999985 -1639.16825 -535.8787499999999 -1592.16825 -585.8787499999999 C -1554.16825 -626.8787499999999 -1474.16825 -661.8787499999999 -1419.16825 -661.8787499999999 L -1374.16825 -661.8787499999999 L -1347.16825 -773.8787499999999 C -1312.16825 -920.8787499999999 -1132.16825 -1669.8787499999999 -1080.16825 -1880.8787499999999 C -1058.16825 -1970.8787499999999 -1030.16825 -2064.87875 -1018.16825 -2089.87875 C -983.16825 -2158.87875 -910.16825 -2227.87875 -833.16825 -2264.87875 L -765.16825 -2296.87875 L -515.16825 -2296.87875 C -278.16824999999994 -2296.87875 -262.16824999999994 -2295.87875 -217.16824999999994 -2274.87875 C -124.16824999999994 -2231.87875 -68.16824999999994 -2148.87875 -62.168249999999944 -2041.8787499999999 C -59.168249999999944 -1986.8787499999999 -70.16824999999994 -1927.8787499999999 -134.16824999999994 -1666.8787499999999 C -175.16824999999994 -1495.8787499999999 -245.16824999999994 -1203.8787499999999 -290.16824999999994 -1016.8787499999999 C -335.16824999999994 -829.8787499999999 -374.16824999999994 -673.8787499999999 -377.16824999999994 -669.8787499999999 C -379.16824999999994 -664.8787499999999 -357.16824999999994 -661.8787499999999 -326.16824999999994 -661.8787499999999 C -257.16824999999994 -661.8787499999999 -197.16824999999994 -635.8787499999999 -145.16824999999994 -583.8787499999999 L -105.16824999999994 -543.8787499999999 L 40.831750000000056 -581.8787499999999 C 683.83175 -747.8787499999999 1258.83175 -1063.8787499999999 1644.83175 -1463.8787499999999 C 1751.83175 -1574.8787499999999 1769.83175 -1589.8787499999999 1813.83175 -1600.8787499999999 C 1873.83175 -1615.8787499999999 1920.83175 -1602.8787499999999 1966.83175 -1558.8787499999999 C 2034.83175 -1494.8787499999999 2029.83175 -1624.8787499999999 2027.83175 363.12125000000015 L 2024.83175 2163.12125 L 1997.83175 2210.12125 C 1978.83175 2242.12125 1956.83175 2262.12125 1926.83175 2277.12125 C 1873.83175 2303.12125 1836.83175 2303.12125 1784.83175 2279.12125 z M 1769.83175 342.12125 L 1769.83175 -1213.87875 L 1702.83175 -1151.87875 C 1326.83175 -804.8787500000001 715.83175 -488.8787500000001 129.83175000000006 -335.8787500000001 C 55.831750000000056 -316.8787500000001 -15.168249999999944 -293.8787500000001 -27.168249999999944 -286.8787500000001 C -69.16824999999994 -258.8787500000001 -71.16824999999994 -225.87875000000008 -68.16824999999994 365.1212499999999 C -65.16824999999994 918.1212499999999 -65.16824999999994 927.1212499999999 -44.168249999999944 955.1212499999999 C -26.168249999999944 979.1212499999999 -3.1682499999999436 988.1212499999999 132.83175000000006 1024.12125 C 619.83175 1152.12125 1121.83175 1389.12125 1484.83175 1662.12125 C 1575.83175 1730.12125 1728.83175 1858.12125 1748.83175 1882.12125 C 1755.83175 1891.12125 1763.83175 1898.12125 1765.83175 1898.12125 C 1767.83175 1898.12125 1769.83175 1198.12125 1769.83175 342.1212499999999 z M -330.16825 343.12125 L -330.16825 -401.87875 L -865.16825 -401.87875 L -1400.16825 -401.87875 L -1400.16825 343.12125 L -1400.16825 1088.12125 L -865.16825 1088.12125 L -330.16824999999994 1088.12125 z M -1680.16825 688.12125 C -1668.16825 681.12125 -1666.16825 625.12125 -1665.16825 328.12125000000003 C -1665.16825 -21.878749999999968 -1665.16825 -22.878749999999968 -1686.16825 -27.878749999999968 C -1698.16825 -30.878749999999968 -1721.16825 -31.878749999999968 -1736.16825 -29.878749999999968 L -1765.16825 -26.878749999999968 L -1768.16825 327.12125000000003 C -1770.16825 604.12125 -1767.16825 683.12125 -1758.16825 690.12125 C -1741.16825 700.12125 -1698.16825 700.12125 -1680.16825 688.12125 z M -586.16825 -903.87875 C -554.16825 -1037.8787499999999 -481.16824999999994 -1340.8787499999999 -424.16824999999994 -1577.8787499999999 C -367.16824999999994 -1814.8787499999999 -320.16824999999994 -2015.8787499999999 -320.16824999999994 -2024.8787499999999 C -320.16824999999994 -2039.8787499999999 -338.16824999999994 -2041.8787499999999 -505.16824999999994 -2041.8787499999999 C -707.16825 -2041.8787499999999 -745.16825 -2034.8787499999999 -775.16825 -1987.8787499999999 C -784.16825 -1973.8787499999999 -857.16825 -1693.8787499999999 -936.16825 -1364.8787499999999 C -1015.16825 -1035.8787499999999 -1084.16825 -750.8787499999999 -1090.16825 -730.8787499999999 C -1111.16825 -656.8787499999999 -1125.16825 -661.8787499999999 -872.16825 -661.8787499999999 L -644.16825 -661.8787499999999 z" stroke-linecap="round" />
</g>
</svg>